<?xml version="1.0" encoding="UTF-8" standalone="no"?>
<!DOCTYPE svg PUBLIC "-//W3C//DTD SVG 1.1//EN" "http://www.w3.org/Graphics/SVG/1.1/DTD/svg11.dtd">
<svg width="100%" height="100%" viewBox="0 0 953 373" version="1.1" xmlns="http://www.w3.org/2000/svg" xmlns:xlink="http://www.w3.org/1999/xlink" xml:space="preserve" xmlns:serif="http://www.serif.com/" style="fill-rule:evenodd;clip-rule:evenodd;stroke-linejoin:round;stroke-miterlimit:2;">
    <g transform="matrix(1,0,0,1,-1272.59,-355.375)">
        <g id="Keogh-Innovation-Lockup" serif:id="Keogh Innovation Lockup" transform="matrix(0.881541,0,0,0.345126,261.76,355.375)">
            <rect x="1146.67" y="0" width="1080" height="1080" style="fill:none;"/>
            <g transform="matrix(0.707516,0,0,1.90506,1226.11,-564.823)">
                <g id="Type">
                    <g transform="matrix(134.204,0,0,134.204,212.792,770.374)">
                        <path d="M0.107,-0.563C0.084,-0.563 0.065,-0.571 0.05,-0.587C0.034,-0.602 0.026,-0.621 0.026,-0.643C0.026,-0.664 0.034,-0.683 0.05,-0.699C0.065,-0.714 0.084,-0.722 0.107,-0.722C0.13,-0.722 0.15,-0.714 0.165,-0.699C0.18,-0.683 0.188,-0.664 0.188,-0.643C0.188,-0.62 0.18,-0.601 0.165,-0.586C0.15,-0.571 0.13,-0.563 0.107,-0.563ZM0.04,-0L0.04,-0.52L0.175,-0.52L0.175,-0L0.04,-0Z" style="fill:rgb(255,255,255);fill-rule:nonzero;"/>
                    </g>
                    <g transform="matrix(134.204,0,0,134.204,245.672,770.374)">
                        <path d="M0.04,-0L0.04,-0.52L0.173,-0.52L0.173,-0.444C0.2,-0.503 0.253,-0.532 0.332,-0.532C0.369,-0.532 0.403,-0.523 0.433,-0.506C0.463,-0.489 0.487,-0.464 0.504,-0.432C0.521,-0.4 0.53,-0.362 0.53,-0.318L0.53,-0L0.395,-0L0.395,-0.285C0.395,-0.33 0.385,-0.363 0.364,-0.384C0.343,-0.404 0.316,-0.414 0.283,-0.414C0.254,-0.414 0.229,-0.404 0.208,-0.384C0.186,-0.363 0.175,-0.33 0.175,-0.285L0.175,-0L0.04,-0Z" style="fill:rgb(255,255,255);fill-rule:nonzero;"/>
                    </g>
                    <g transform="matrix(134.204,0,0,134.204,325.524,770.374)">
                        <path d="M0.04,-0L0.04,-0.52L0.173,-0.52L0.173,-0.444C0.2,-0.503 0.253,-0.532 0.332,-0.532C0.369,-0.532 0.403,-0.523 0.433,-0.506C0.463,-0.489 0.487,-0.464 0.504,-0.432C0.521,-0.4 0.53,-0.362 0.53,-0.318L0.53,-0L0.395,-0L0.395,-0.285C0.395,-0.33 0.385,-0.363 0.364,-0.384C0.343,-0.404 0.316,-0.414 0.283,-0.414C0.254,-0.414 0.229,-0.404 0.208,-0.384C0.186,-0.363 0.175,-0.33 0.175,-0.285L0.175,-0L0.04,-0Z" style="fill:rgb(255,255,255);fill-rule:nonzero;"/>
                    </g>
                    <g transform="matrix(134.204,0,0,134.204,405.375,770.374)">
                        <path d="M0.297,0.013C0.244,0.013 0.196,0.001 0.154,-0.024C0.112,-0.049 0.079,-0.082 0.056,-0.123C0.032,-0.164 0.02,-0.209 0.02,-0.259C0.02,-0.309 0.032,-0.355 0.056,-0.396C0.079,-0.437 0.112,-0.47 0.154,-0.495C0.196,-0.52 0.244,-0.532 0.297,-0.532C0.351,-0.532 0.399,-0.52 0.441,-0.495C0.482,-0.47 0.515,-0.437 0.539,-0.396C0.562,-0.355 0.574,-0.309 0.574,-0.259C0.574,-0.209 0.562,-0.164 0.539,-0.123C0.515,-0.082 0.482,-0.049 0.441,-0.024C0.399,0.001 0.351,0.013 0.297,0.013ZM0.297,-0.11C0.326,-0.11 0.351,-0.117 0.372,-0.131C0.393,-0.144 0.41,-0.162 0.422,-0.185C0.433,-0.208 0.439,-0.232 0.439,-0.259C0.439,-0.286 0.433,-0.311 0.422,-0.334C0.41,-0.357 0.393,-0.375 0.372,-0.389C0.351,-0.402 0.326,-0.409 0.297,-0.409C0.268,-0.409 0.243,-0.402 0.222,-0.389C0.201,-0.375 0.184,-0.357 0.173,-0.334C0.161,-0.311 0.155,-0.286 0.155,-0.259C0.155,-0.232 0.161,-0.208 0.173,-0.185C0.184,-0.162 0.201,-0.144 0.222,-0.131C0.243,-0.117 0.268,-0.11 0.297,-0.11Z" style="fill:rgb(255,255,255);fill-rule:nonzero;"/>
                    </g>
                    <g transform="matrix(134.204,0,0,134.204,484.958,770.374)">
                        <path d="M0.202,-0L-0.015,-0.52L0.145,-0.52L0.249,-0.223C0.258,-0.196 0.266,-0.169 0.271,-0.14C0.276,-0.169 0.284,-0.196 0.293,-0.223L0.397,-0.52L0.554,-0.52L0.338,-0L0.202,-0Z" style="fill:rgb(255,255,255);fill-rule:nonzero;"/>
                    </g>
                    <g transform="matrix(134.204,0,0,134.204,556.891,770.374)">
                        <path d="M0.277,0.013C0.23,0.013 0.187,0.001 0.148,-0.024C0.109,-0.048 0.078,-0.081 0.055,-0.122C0.032,-0.163 0.02,-0.208 0.02,-0.258C0.02,-0.295 0.027,-0.331 0.04,-0.364C0.053,-0.397 0.072,-0.426 0.095,-0.451C0.118,-0.475 0.146,-0.495 0.177,-0.51C0.208,-0.524 0.241,-0.531 0.277,-0.531C0.322,-0.531 0.358,-0.523 0.383,-0.506C0.408,-0.489 0.428,-0.466 0.442,-0.438L0.442,-0.52L0.576,-0.52L0.576,-0L0.445,-0L0.445,-0.085C0.431,-0.056 0.411,-0.032 0.386,-0.014C0.36,0.004 0.324,0.013 0.277,0.013ZM0.299,-0.109C0.329,-0.109 0.355,-0.116 0.377,-0.13C0.398,-0.143 0.415,-0.161 0.427,-0.184C0.439,-0.207 0.445,-0.231 0.445,-0.258C0.445,-0.285 0.439,-0.31 0.427,-0.333C0.415,-0.356 0.398,-0.374 0.377,-0.388C0.355,-0.402 0.329,-0.409 0.299,-0.409C0.27,-0.409 0.245,-0.402 0.224,-0.389C0.202,-0.375 0.185,-0.357 0.173,-0.334C0.161,-0.311 0.155,-0.286 0.155,-0.259C0.155,-0.233 0.161,-0.209 0.173,-0.186C0.185,-0.163 0.202,-0.144 0.224,-0.13C0.245,-0.116 0.27,-0.109 0.299,-0.109Z" style="fill:rgb(255,255,255);fill-rule:nonzero;"/>
                    </g>
                    <g transform="matrix(134.204,0,0,134.204,643.587,770.374)">
                        <path d="M0.237,-0C0.186,-0 0.146,-0.013 0.119,-0.038C0.092,-0.063 0.078,-0.104 0.078,-0.161L0.078,-0.405L0.005,-0.405L0.005,-0.52L0.078,-0.52L0.078,-0.625L0.213,-0.639L0.213,-0.52L0.323,-0.52L0.323,-0.405L0.213,-0.405L0.213,-0.168C0.213,-0.136 0.227,-0.12 0.255,-0.12L0.311,-0.12L0.311,-0L0.237,-0Z" style="fill:rgb(255,255,255);fill-rule:nonzero;"/>
                    </g>
                    <g transform="matrix(134.204,0,0,134.204,691.632,770.374)">
                        <path d="M0.107,-0.563C0.084,-0.563 0.065,-0.571 0.05,-0.587C0.034,-0.602 0.026,-0.621 0.026,-0.643C0.026,-0.664 0.034,-0.683 0.05,-0.699C0.065,-0.714 0.084,-0.722 0.107,-0.722C0.13,-0.722 0.15,-0.714 0.165,-0.699C0.18,-0.683 0.188,-0.664 0.188,-0.643C0.188,-0.62 0.18,-0.601 0.165,-0.586C0.15,-0.571 0.13,-0.563 0.107,-0.563ZM0.04,-0L0.04,-0.52L0.175,-0.52L0.175,-0L0.04,-0Z" style="fill:rgb(255,255,255);fill-rule:nonzero;"/>
                    </g>
                    <g transform="matrix(134.204,0,0,134.204,724.512,770.374)">
                        <path d="M0.297,0.013C0.244,0.013 0.196,0.001 0.154,-0.024C0.112,-0.049 0.079,-0.082 0.056,-0.123C0.032,-0.164 0.02,-0.209 0.02,-0.259C0.02,-0.309 0.032,-0.355 0.056,-0.396C0.079,-0.437 0.112,-0.47 0.154,-0.495C0.196,-0.52 0.244,-0.532 0.297,-0.532C0.351,-0.532 0.399,-0.52 0.441,-0.495C0.482,-0.47 0.515,-0.437 0.539,-0.396C0.562,-0.355 0.574,-0.309 0.574,-0.259C0.574,-0.209 0.562,-0.164 0.539,-0.123C0.515,-0.082 0.482,-0.049 0.441,-0.024C0.399,0.001 0.351,0.013 0.297,0.013ZM0.297,-0.11C0.326,-0.11 0.351,-0.117 0.372,-0.131C0.393,-0.144 0.41,-0.162 0.422,-0.185C0.433,-0.208 0.439,-0.232 0.439,-0.259C0.439,-0.286 0.433,-0.311 0.422,-0.334C0.41,-0.357 0.393,-0.375 0.372,-0.389C0.351,-0.402 0.326,-0.409 0.297,-0.409C0.268,-0.409 0.243,-0.402 0.222,-0.389C0.201,-0.375 0.184,-0.357 0.173,-0.334C0.161,-0.311 0.155,-0.286 0.155,-0.259C0.155,-0.232 0.161,-0.208 0.173,-0.185C0.184,-0.162 0.201,-0.144 0.222,-0.131C0.243,-0.117 0.268,-0.11 0.297,-0.11Z" style="fill:rgb(255,255,255);fill-rule:nonzero;"/>
                    </g>
                    <g transform="matrix(134.204,0,0,134.204,808.255,770.374)">
                        <path d="M0.04,-0L0.04,-0.52L0.173,-0.52L0.173,-0.444C0.2,-0.503 0.253,-0.532 0.332,-0.532C0.369,-0.532 0.403,-0.523 0.433,-0.506C0.463,-0.489 0.487,-0.464 0.504,-0.432C0.521,-0.4 0.53,-0.362 0.53,-0.318L0.53,-0L0.395,-0L0.395,-0.285C0.395,-0.33 0.385,-0.363 0.364,-0.384C0.343,-0.404 0.316,-0.414 0.283,-0.414C0.254,-0.414 0.229,-0.404 0.208,-0.384C0.186,-0.363 0.175,-0.33 0.175,-0.285L0.175,-0L0.04,-0Z" style="fill:rgb(255,255,255);fill-rule:nonzero;"/>
                    </g>
                </g>
            </g>
            <g transform="matrix(2.0688,0,0,5.28423,927.306,-3389.36)">
                <g id="Type1" serif:id="Type">
                    <g transform="matrix(134.204,0,0,134.204,212.792,770.374)">
                        <path d="M0.05,-0L0.05,-0.7L0.19,-0.7L0.19,-0.411L0.408,-0.7L0.591,-0.7L0.32,-0.372L0.611,-0L0.432,-0L0.19,-0.309L0.19,-0L0.05,-0Z" style="fill:rgb(15,118,190);fill-rule:nonzero;"/>
                    </g>
                    <g transform="matrix(134.204,0,0,134.204,287.141,770.374)">
                        <path d="M0.289,0.013C0.236,0.013 0.189,0.001 0.148,-0.024C0.107,-0.049 0.076,-0.082 0.054,-0.123C0.031,-0.164 0.02,-0.209 0.02,-0.259C0.02,-0.309 0.032,-0.355 0.055,-0.397C0.078,-0.438 0.11,-0.471 0.151,-0.496C0.191,-0.521 0.237,-0.533 0.289,-0.533C0.341,-0.533 0.387,-0.521 0.427,-0.496C0.466,-0.471 0.497,-0.438 0.52,-0.397C0.542,-0.355 0.553,-0.309 0.553,-0.259C0.553,-0.252 0.553,-0.244 0.552,-0.236C0.551,-0.228 0.55,-0.22 0.549,-0.211L0.16,-0.211C0.167,-0.18 0.182,-0.155 0.205,-0.136C0.227,-0.117 0.255,-0.107 0.289,-0.107C0.318,-0.107 0.344,-0.114 0.366,-0.127C0.387,-0.14 0.404,-0.157 0.416,-0.177L0.521,-0.098C0.5,-0.065 0.469,-0.039 0.428,-0.018C0.387,0.003 0.34,0.013 0.289,0.013ZM0.287,-0.417C0.255,-0.417 0.228,-0.407 0.205,-0.388C0.182,-0.369 0.167,-0.343 0.16,-0.312L0.417,-0.312C0.41,-0.341 0.395,-0.365 0.372,-0.386C0.349,-0.407 0.32,-0.417 0.287,-0.417Z" style="fill:rgb(15,118,190);fill-rule:nonzero;"/>
                    </g>
                    <g transform="matrix(134.204,0,0,134.204,362.966,770.374)">
                        <path d="M0.297,0.013C0.244,0.013 0.196,0.001 0.154,-0.024C0.112,-0.049 0.079,-0.082 0.056,-0.123C0.032,-0.164 0.02,-0.209 0.02,-0.259C0.02,-0.309 0.032,-0.355 0.056,-0.396C0.079,-0.437 0.112,-0.47 0.154,-0.495C0.196,-0.52 0.244,-0.532 0.297,-0.532C0.351,-0.532 0.399,-0.52 0.441,-0.495C0.482,-0.47 0.515,-0.437 0.539,-0.396C0.562,-0.355 0.574,-0.309 0.574,-0.259C0.574,-0.209 0.562,-0.164 0.539,-0.123C0.515,-0.082 0.482,-0.049 0.441,-0.024C0.399,0.001 0.351,0.013 0.297,0.013ZM0.297,-0.11C0.326,-0.11 0.351,-0.117 0.372,-0.131C0.393,-0.144 0.41,-0.162 0.422,-0.185C0.433,-0.208 0.439,-0.232 0.439,-0.259C0.439,-0.286 0.433,-0.311 0.422,-0.334C0.41,-0.357 0.393,-0.375 0.372,-0.389C0.351,-0.402 0.326,-0.409 0.297,-0.409C0.268,-0.409 0.243,-0.402 0.222,-0.389C0.201,-0.375 0.184,-0.357 0.173,-0.334C0.161,-0.311 0.155,-0.286 0.155,-0.259C0.155,-0.232 0.161,-0.208 0.173,-0.185C0.184,-0.162 0.201,-0.144 0.222,-0.131C0.243,-0.117 0.268,-0.11 0.297,-0.11Z" style="fill:rgb(15,118,190);fill-rule:nonzero;"/>
                    </g>
                    <g transform="matrix(134.204,0,0,134.204,442.013,770.374)">
                        <path d="M0.293,0.213C0.24,0.213 0.194,0.206 0.153,0.192C0.112,0.177 0.075,0.152 0.044,0.115L0.128,0.016C0.153,0.044 0.178,0.063 0.205,0.073C0.232,0.083 0.261,0.088 0.294,0.088C0.318,0.088 0.34,0.082 0.361,0.07C0.382,0.058 0.398,0.041 0.411,0.02C0.423,-0.002 0.429,-0.027 0.429,-0.054L0.429,-0.077C0.415,-0.053 0.396,-0.034 0.372,-0.019C0.347,-0.004 0.314,0.003 0.272,0.003C0.225,0.003 0.182,-0.009 0.144,-0.033C0.105,-0.057 0.075,-0.089 0.053,-0.13C0.031,-0.17 0.02,-0.215 0.02,-0.265C0.02,-0.315 0.031,-0.36 0.053,-0.401C0.075,-0.442 0.105,-0.474 0.144,-0.498C0.182,-0.521 0.225,-0.533 0.272,-0.533C0.315,-0.533 0.349,-0.525 0.374,-0.51C0.398,-0.495 0.417,-0.474 0.431,-0.449L0.431,-0.52L0.564,-0.52L0.564,-0.046C0.564,0.007 0.553,0.053 0.53,0.092C0.506,0.131 0.475,0.161 0.434,0.182C0.393,0.202 0.346,0.213 0.293,0.213ZM0.294,-0.12C0.339,-0.12 0.373,-0.134 0.398,-0.162C0.423,-0.19 0.435,-0.224 0.435,-0.265C0.435,-0.306 0.423,-0.34 0.398,-0.368C0.373,-0.396 0.339,-0.41 0.294,-0.41C0.25,-0.41 0.216,-0.396 0.192,-0.368C0.167,-0.34 0.155,-0.306 0.155,-0.265C0.155,-0.239 0.161,-0.215 0.172,-0.193C0.183,-0.171 0.198,-0.153 0.219,-0.14C0.24,-0.127 0.265,-0.12 0.294,-0.12Z" style="fill:rgb(15,118,190);fill-rule:nonzero;"/>
                    </g>
                    <g transform="matrix(134.204,0,0,134.204,521.193,770.374)">
                        <path d="M0.04,-0L0.04,-0.73L0.175,-0.73L0.175,-0.448C0.203,-0.504 0.255,-0.532 0.332,-0.532C0.369,-0.532 0.403,-0.523 0.433,-0.506C0.463,-0.489 0.487,-0.464 0.504,-0.432C0.521,-0.4 0.53,-0.362 0.53,-0.318L0.53,-0L0.395,-0L0.395,-0.285C0.395,-0.33 0.385,-0.363 0.364,-0.384C0.343,-0.404 0.316,-0.414 0.283,-0.414C0.254,-0.414 0.229,-0.404 0.208,-0.384C0.186,-0.363 0.175,-0.33 0.175,-0.285L0.175,-0L0.04,-0Z" style="fill:rgb(15,118,190);fill-rule:nonzero;"/>
                    </g>
                </g>
            </g>
            <g transform="matrix(3.16817,0,0,8.09233,-1301.65,-5095.93)">
                <path d="M840.65,741.696C839.222,741.696 837.794,741.627 836.372,741.489L834.963,734.628C832.235,734.211 829.562,733.494 826.992,732.492L822.341,737.729C819.738,736.546 817.257,735.113 814.931,733.451L817.141,726.805C814.987,725.08 813.03,723.123 811.305,720.969L804.659,723.179C802.997,720.853 801.564,718.372 800.381,715.769L805.618,711.118C804.616,708.548 803.899,705.875 803.482,703.147L796.621,701.738C796.345,698.893 796.345,696.027 796.621,693.182L803.482,691.772C803.899,689.045 804.616,686.372 805.618,683.802L800.381,679.151C801.564,676.548 802.997,674.067 804.659,671.741L811.305,673.95C813.03,671.797 814.987,669.84 817.141,668.115L814.931,661.469C817.257,659.807 819.738,658.374 822.341,657.191L826.992,662.428C829.562,661.426 832.235,660.709 834.963,660.292L836.372,653.431C837.794,653.293 839.222,653.224 840.65,653.224L840.65,677.589C829.683,677.589 820.779,686.493 820.779,697.46C820.779,708.427 829.683,717.331 840.65,717.331L840.65,741.696Z" style="fill:url(#_Linear1);"/>
            </g>
        </g>
    </g>
    <defs>
        <linearGradient id="_Linear1" x1="0" y1="0" x2="1" y2="0" gradientUnits="userSpaceOnUse" gradientTransform="matrix(-0.209166,-65.7606,65.7606,-0.209166,829.815,741.696)"><stop offset="0" style="stop-color:rgb(0,35,57);stop-opacity:1"/><stop offset="1" style="stop-color:rgb(25,116,174);stop-opacity:1"/></linearGradient>
    </defs>
</svg>
